<svg width="61" height="60" viewBox="0 0 61 60" fill="none" xmlns="http://www.w3.org/2000/svg"><path fill="#68B738" d="M.5 0h60v60H.5z"/><ellipse cx="35.7042" cy="24.3299" rx="1.0873" ry="1.0851" fill="#fff"/><ellipse cx="24.8311" cy="24.3299" rx="1.0873" ry="1.0851" fill="#fff"/><ellipse cx="24.8311" cy="37.3512" rx="1.0873" ry="1.0851" fill="#fff"/><ellipse cx="30.2677" cy="39.5215" rx="1.0873" ry="1.0851" fill="#fff"/><ellipse cx="21.5692" cy="30.7748" rx="1.0873" ry="1.0851" fill="#fff"/><ellipse cx="38.9661" cy="30.7748" rx="1.0873" ry="1.0851" fill="#fff"/><ellipse cx="35.7042" cy="37.3512" rx="1.0873" ry="1.0851" fill="#fff"/><mask id="a" fill="#fff"><path fill-rule="evenodd" clip-rule="evenodd" d="M35.4215 42.0581c.4083-.1959.9011-.1283 1.217.1961l1.8259 1.875a.6817.6817 0 0 0 .9766-.9511l-1.3567-1.3932c-.4259-.4374-.3615-1.1493.0977-1.5516 2.6418-2.3138 4.318-5.7645 4.318-9.6188C42.5 23.6477 37.0235 18 30.2678 18c-6.7556 0-12.2322 5.6477-12.2322 12.6145 0 3.8143 1.6417 7.2332 4.2361 9.5463.4527.4036.5132 1.11.09 1.5446l-1.4341 1.4727a.6814.6814 0 0 0 0 .951.6816.6816 0 0 0 .9766.0001l1.8796-1.9302c.3187-.3272.8166-.3929 1.2264-.1914 1.5928.7831 3.3756 1.2214 5.2576 1.2214 1.8412 0 3.5875-.4195 5.1537-1.1709Zm-5.1537-.2307c6.005 0 10.8731-5.0202 10.8731-11.2129 0-6.1927-4.8681-11.2129-10.8731-11.2129-6.005 0-10.873 5.0202-10.873 11.2129 0 6.1927 4.868 11.2129 10.873 11.2129Zm-.7595-11.5294v-7.3571a.7813.7813 0 1 1 1.5625 0v8.1817a.803.803 0 0 1-.8031.8031.7594.7594 0 0 1-.7594-.7594v-.8683Z"/></mask><path fill-rule="evenodd" clip-rule="evenodd" d="M35.4215 42.0581c.4083-.1959.9011-.1283 1.217.1961l1.8259 1.875a.6817.6817 0 0 0 .9766-.9511l-1.3567-1.3932c-.4259-.4374-.3615-1.1493.0977-1.5516 2.6418-2.3138 4.318-5.7645 4.318-9.6188C42.5 23.6477 37.0235 18 30.2678 18c-6.7556 0-12.2322 5.6477-12.2322 12.6145 0 3.8143 1.6417 7.2332 4.2361 9.5463.4527.4036.5132 1.11.09 1.5446l-1.4341 1.4727a.6814.6814 0 0 0 0 .951.6816.6816 0 0 0 .9766.0001l1.8796-1.9302c.3187-.3272.8166-.3929 1.2264-.1914 1.5928.7831 3.3756 1.2214 5.2576 1.2214 1.8412 0 3.5875-.4195 5.1537-1.1709Zm-5.1537-.2307c6.005 0 10.8731-5.0202 10.8731-11.2129 0-6.1927-4.8681-11.2129-10.8731-11.2129-6.005 0-10.873 5.0202-10.873 11.2129 0 6.1927 4.868 11.2129 10.873 11.2129Zm-.7595-11.5294v-7.3571a.7813.7813 0 1 1 1.5625 0v8.1817a.803.803 0 0 1-.8031.8031.7594.7594 0 0 1-.7594-.7594v-.8683Z" fill="#fff"/><path d="m23.7838 42.199 2.8657 2.7906-2.8657-2.7906Zm1.2264-.1914 1.7648-3.5896-1.7648 3.5896Zm-3.106 2.1216-2.8657-2.7907 2.8657 2.7907Zm-.9766-.9511 2.8656 2.7906-2.8656-2.7906Zm17.1567-1.3932-2.8657 2.7907 2.8657-2.7907Zm.0977-1.5516-2.6355-3.009 2.6355 3.009Zm-15.9103-.0725-2.662 2.9856 2.662-2.9856Zm.09 1.5446-2.8656-2.7907 2.8656 2.7907Zm17.0793 1.4727 2.8657-2.7907-2.8657 2.7907Zm-.9766.9511 2.8657-2.7907-2.8657 2.7907Zm-1.8259-1.875-2.8657 2.7907 2.8657-2.7907Zm-1.217-.1961-1.7302-3.6065 1.7302 3.6065Zm-1.6487 2.9868 1.8259 1.8749 5.7314-5.5813-1.8259-1.8749-5.7314 5.5813Zm8.5339-4.6575L40.95 38.9942l-5.7314 5.5814 1.3567 1.3932 5.7314-5.5814Zm-1.4892 2.8549c3.49-3.0568 5.6825-7.5957 5.6825-12.6278h-8c0 2.6766-1.1599 5.0389-2.9535 6.6098l5.271 6.018ZM46.5 30.6145C46.5 21.5555 39.3478 14 30.2678 14v8c4.4314 0 8.2322 3.7399 8.2322 8.6145h8ZM30.2678 14c-9.0799 0-16.2322 7.5555-16.2322 16.6145h8c0-4.8746 3.8009-8.6145 8.2322-8.6145v-8ZM14.0356 30.6145c0 4.9798 2.1474 9.4767 5.5741 12.5319l5.3239-5.9712c-1.762-1.571-2.898-3.9119-2.898-6.5607h-8Zm5.4605 8.3002-1.4342 1.4727 5.7313 5.5813 1.4342-1.4727-5.7313-5.5813Zm5.2738 8.0051 1.8796-1.9302-5.7314-5.5813-1.8796 1.9302 5.7314 5.5813Zm-1.5245-1.3226a15.8777 15.8777 0 0 0 7.0224 1.6318v-8c-1.2535 0-2.4341-.2905-3.4928-.811l-3.5296 7.1792Zm7.0224 1.6318c2.4558 0 4.792-.5609 6.8839-1.5645l-3.4604-7.2129c-1.0405.4992-2.1969.7774-3.4235.7774v8Zm0-1.4016c8.3293 0 14.8731-6.928 14.8731-15.2129h-8c0 4.1005-3.1924 7.2129-6.8731 7.2129v8Zm14.8731-15.2129c0-8.2849-6.5438-15.2129-14.8731-15.2129v8c3.6807 0 6.8731 3.1124 6.8731 7.2129h8ZM30.2678 15.4016c-8.3293 0-14.873 6.928-14.873 15.2129h8c0-4.1005 3.1923-7.2129 6.873-7.2129v-8Zm-14.873 15.2129c0 8.2849 6.5437 15.2129 14.873 15.2129v-8c-3.6807 0-6.873-3.1124-6.873-7.2129h-8Zm11.676-.3165v.5426h8v-.5426h-8Zm0 .5426v.282h8v-.282h-8Zm6.4375.3257v-.3257h-8v.3257h8Zm0-.3257v-.5426h-8v.5426h8Zm0-.5426v-3.7979h-8v3.7979h8Zm0-3.7979v-3.5592h-8v3.5592h8Zm-6.4375-3.5592v3.5592h8v-3.5592h-8Zm0 3.5592v3.7979h8v-3.7979h-8Zm3.2187-8.3405c-2.6406 0-4.7812 2.1407-4.7812 4.7813h8c0 1.7777-1.4411 3.2187-3.2188 3.2187v-8Zm-3.2187 12.963c0-1.7656 1.4313-3.1969 3.1969-3.1969v8c2.6527 0 4.8031-2.1504 4.8031-4.8031h-8Zm-.4213 13.867c-.9926 1.0194-2.3974 1.1026-3.4041.6076l3.5296-7.1792c-1.8263-.898-4.227-.6834-5.8569.9903l5.7314 5.5813Zm-8.5876 1.9302c1.8378 1.8872 4.8702 1.8872 6.708 0l-5.7314-5.5813c1.3027-1.3377 3.4521-1.3377 4.7548 0l-5.7314 5.5813Zm0-6.5324c-1.7702 1.8177-1.7702 4.7147 0 6.5324l5.7314-5.5813c1.2547 1.2884 1.2546 3.3418-.0001 4.6302l-5.7313-5.5813ZM40.95 38.9942c1.3427 1.3789.944 3.3052-.1325 4.2481l-5.271-6.018c-1.995 1.7474-2.5225 5.0976-.3279 7.3513l5.7314-5.5814ZM30.2895 26.1596c-1.7776 0-3.2187-1.441-3.2187-3.2187h8c0-2.6406-2.1406-4.7813-4.7813-4.7813v8ZM19.6097 43.1464c-1.0634-.9481-1.4471-2.8625-.1136-4.2317l5.7313 5.5813c2.1797-2.2383 1.6751-5.5654-.2938-7.3208l-5.3239 5.9712Zm22.697 3.7734c1.7701-1.8177 1.7701-4.7147 0-6.5324l-5.7314 5.5814c-1.2547-1.2885-1.2547-3.3419 0-4.6303l5.7314 5.5813Zm-6.708 0c1.8378 1.8872 4.8702 1.8872 6.708 0l-5.7314-5.5813c1.3027-1.3377 3.4521-1.3377 4.7548 0l-5.7314 5.5813Zm-5.331-18.9941c1.7897 0 3.2406 1.4508 3.2406 3.2406h-8c0 2.6285 2.1308 4.7594 4.7594 4.7594v-8Zm9.2365 11.5379c-1.6161-1.6596-3.9925-1.8853-5.8129-1.012l3.4604 7.2129c-1.0037.4816-2.3947.391-3.3789-.6196l5.7314-5.5813Z" fill="#fff" mask="url(#a)"/><path fill="#fff" d="M29.5 19v-4H31v4z"/><rect x="22.5" y="15" width="15.5" height="1.5" rx=".75" fill="#fff"/></svg>