<svg width="61" height="60" viewBox="0 0 61 60" fill="none" xmlns="http://www.w3.org/2000/svg"><path fill="#68B738" d="M.5 0h60v60H.5z"/><g clip-path="url(#a)" fill="#fff"><path d="M36.2762 31.4731c-1.706 0-3.0885 1.4784-3.0885 3.3011 0 1.8241 1.383 3.3019 3.0885 3.3019 1.7056 0 3.0881-1.4783 3.0881-3.3019 0-1.8232-1.383-3.3011-3.0881-3.3011Zm0 5.0133c-.884 0-1.6009-.7663-1.6009-1.7113 0-.946.7169-1.7118 1.6009-1.7118.8841 0 1.6014.7658 1.6014 1.7118 0 .945-.7173 1.7113-1.6014 1.7113ZM27.1068 12.9899c-1.7604 0-3.1873 1.5248-3.1873 3.4071 0 1.8822 1.4265 3.4066 3.1873 3.4066s3.1873-1.5239 3.1873-3.4066c-.0005-1.8828-1.4269-3.4071-3.1873-3.4071Zm-.0005 5.4758c-1.0689 0-1.9353-.9261-1.9353-2.0692 0-1.1427.8664-2.0693 1.9353-2.0693 1.0694 0 1.9358.9266 1.9358 2.0693 0 1.1431-.8664 2.0692-1.9358 2.0692ZM23.7269 30.6105c-1.2936 0-2.3413 1.1198-2.3413 2.5027 0 1.3824 1.0477 2.5028 2.3413 2.5028 1.2937 0 2.3413-1.1204 2.3413-2.5028s-1.0476-2.5027-2.3413-2.5027ZM23.5 32.5c-.459 0 1.1582 1.1039 1.1582.6132 0-.4897-1.6172.3868-1.1582.3868.4586 0 1.0571-.8774 1.0571-.3877 0 .4906-.5985-.6123-1.0571-.6123ZM34.0002 22.7627s3.04-.8385 6.1779 1.4938c.9071.7599 1.7654 1.3364 1.1523 2.1225-.3435.3405-.6371.6568-1.716-.5241-1.054-.76-2.7197-1.8983-5.6142-1.4415-1.1278.2364-1.9616.5507-3.5557 2.1492-1.5936 1.5984-3.9721 2.7251-6.4973 2.4892-2.5253-.2354-3.8489-1.2579-5.2463-2.542-.2941-.4195-.2941-.8651-.1228-1.1272.1713-.262.8333-.5241 1.2012-.1312.3679.3933 2.1084 1.9656 3.8244 2.0702 1.7164.1046 3.4329.2097 5.737-1.9656 2.306-2.1739 3.4583-2.3313 4.6595-2.5933Z"/><mask id="b"><path d="M44.1457 39.8156V21.1574c0-.5783-.3739-.65-.5239-.6553h-.5056c-.4935 0-.5365.5565-.5379.7386v.0606c.0014 3.6086.0091 18.2532-.0018 18.5399-.0123.328-.0734 1.1664-.8211 1.8872-.8084.695-1.6176.603-1.6176.603s-20.1772 0-20.6553-.0266c-.3797-.0654-1.0417-.2098-1.6059-1.009-.5637-.7992-.4531-1.8474-.4531-1.8474V21.3149c0-.8385-.6742-.8123-.6742-.8123h-.3073c-.536 0-.5854.588-.5881.7764v18.537c0 1.3369.4536 2.3977 1.5479 3.3369 1.0938.9387 2.3748.8564 2.3748.8564s19.7236 0 20.5818-.0024c.8583-.0025 1.9856-.4166 2.9159-1.5554.9294-1.1387.8714-2.6359.8714-2.6359Z"/></mask><path d="M44.1457 39.8156V21.1574c0-.5783-.3739-.65-.5239-.6553h-.5056c-.4935 0-.5365.5565-.5379.7386v.0606c.0014 3.6086.0091 18.2532-.0018 18.5399-.0123.328-.0734 1.1664-.8211 1.8872-.8084.695-1.6176.603-1.6176.603s-20.1772 0-20.6553-.0266c-.3797-.0654-1.0417-.2098-1.6059-1.009-.5637-.7992-.4531-1.8474-.4531-1.8474V21.3149c0-.8385-.6742-.8123-.6742-.8123h-.3073c-.536 0-.5854.588-.5881.7764v18.537c0 1.3369.4536 2.3977 1.5479 3.3369 1.0938.9387 2.3748.8564 2.3748.8564s19.7236 0 20.5818-.0024c.8583-.0025 1.9856-.4166 2.9159-1.5554.9294-1.1387.8714-2.6359.8714-2.6359Z"/><path d="M44.1457 39.8156h-20v.3872l.0149.387 19.9851-.7742Zm-.5239-19.3135L44.3319.5147 43.977.502h-.3552v20Zm-1.0435.7386-19.9995-.1492-.0005.0746v.0746h20Zm0 .0606h-20v.0075l20-.0075Zm-.0018 18.5399-19.9857-.7579-.0004.0123 19.9861.7456Zm-.8211 1.8872 13.0395 15.1648.4315-.371.4097-.395-13.8807-14.3988Zm-1.6176.603 2.2598-19.8719-1.1263-.1281h-1.1335v20Zm-20.6553-.0266-3.3942 19.7098 1.1332.1952 1.1482.064 1.1128-19.969Zm-1.6059-1.009L1.5328 52.8231l.0044.0062 16.3394-11.5335Zm-.4531-1.8474 19.8897 2.098.1103-1.0461v-1.0519h-20Zm-.6742-18.9458v20h.3877l.3875-.0151-.7752-19.9849Zm-.8954.7764-19.998-.2885-.002.1442v.1443h20Zm1.5479 21.8739L4.3761 58.3296l.0007.0006 13.025-15.1773Zm2.3748.8564v-20h-.6422l-.6408.0412 1.283 19.9588Zm23.4977-1.5578 15.4888 12.653.006-.0074-15.4948-12.6456Zm20.8714-2.6359V21.1574h-40v18.6582h40Zm0-18.6582c0-4.9701-1.8584-11.4194-7.6177-16.0842C51.6383 1.1128 46.4987.5917 44.3319.5147l-1.4201 39.9748c-2.0168-.0717-6.8945-.5543-11.5598-4.333-5.5349-4.483-7.2063-10.6073-7.2063-14.9991h40ZM43.6218.5021h-.5056v40h.5056v-40Zm-.5056 0c-4.1563 0-8.5237 1.2668-12.2831 4.083-3.511 2.6302-5.4171 5.7995-6.4191 8.0335-1.7975 4.0079-1.8283 7.5579-1.8352 8.4729l39.9989.2985c-.0054.7329-.014 3.9136-1.6664 7.5976-.9293 2.0721-2.7321 5.0909-6.0962 7.611a19.5297 19.5297 0 0 1-11.6989 3.9035v-40ZM22.5783 21.2407V21.2916h40V21.2407h-40Zm0 .0509V21.3013h40V21.2916h-40Zm0 .0172c.0007 1.808.0029 6.3663.0037 10.5117.0003 2.073.0003 4.0374-.0005 5.4997-.0003.7324-.0009 1.3311-.0017 1.752-.0015.7883-.0056.4505.011.0111l39.9713 1.5159c.0194-.5111.0174-1.3693.0176-1.4509.0009-.4489.0014-1.0695.0018-1.8068.0008-1.477.0008-3.453.0005-5.5281-.0008-4.1507-.003-8.719-.0037-10.5196l-40 .015Zm.0121 17.7868c.0503-1.3487.3838-7.0419 5.2843-11.7661l27.7614 28.7977c6.3959-6.1657 6.8517-13.5358 6.9265-15.5403l-39.9722-1.4913Zm6.1256-12.5321c2.5391-2.1833 5.3548-3.3276 7.8066-3.8438a17.9546 17.9546 0 0 1 3.2499-.3784 18.568 18.568 0 0 1 1.3781.0166 19.312 19.312 0 0 1 1.1723.0932l.0374.0042.0187.0021c.0093.001.0186.0021-2.2412 19.874-2.2599 19.8719-2.2506 19.873-2.2412 19.874l.0187.0021a42.9803 42.9803 0 0 0 .1136.0124 20.6794 20.6794 0 0 0 1.1687.0902 21.3784 21.3784 0 0 0 1.5836.0185 22.0436 22.0436 0 0 0 3.9831-.4672c3.0585-.644 6.683-2.0898 10.0306-4.9682L28.716 26.5635Zm11.4218 15.7679c0-20-.0001-20-.0002-20h-.8659l-2.2897-.0004c-1.8975-.0004-4.4314-.0013-6.9795-.0029-2.55-.0017-5.1068-.0042-7.0527-.0079-.9751-.0019-1.7837-.004-2.3572-.0065-1.071-.0045-.6131-.0123.0027.022l-2.2256 39.9381c.9709.0541 7.1699.0514 11.6067.0543 2.5559.0016 5.0961.0025 6.9968.0029l2.2948.0004h.8695c.0002 0 .0003 0 .0003-20ZM22.8767 22.5949c.4324.0744 2.5261.4268 4.9378 1.6533 2.5656 1.3047 4.7743 3.2087 6.4016 5.5141l-32.679 23.067c4.9947 7.0759 11.8772 8.7249 14.5512 9.1853l6.7884-39.4197Zm11.3438 7.1736c2.3488 3.3303 2.9087 6.5087 3.0797 7.9542.101.8542.1211 1.5949.1129 2.1832a17.3933 17.3933 0 0 1-.0336.8586 18.3357 18.3357 0 0 1-.0565.6866l-.0049.0477-.0024.0238-.0013.0119c-.0006.0059-.0012.0119-19.8909-2.0861-19.8896-2.098-19.8903-2.092-19.8909-2.086a2.29 2.29 0 0 0-.0012.0119l-.0026.0241a19.8795 19.8795 0 0 0-.0339.3605 21.6049 21.6049 0 0 0-.0347.4666c-.021.3292-.0374.704-.0432 1.1179a23.4375 23.4375 0 0 0 .1602 3.0787c.2567 2.1694 1.043 6.2715 3.9556 10.401l32.6877-23.0546Zm3.203 9.6799V21.3149h-40v18.1335h40Zm0-18.1335c0-6.8903-3.4119-14.004-10.2643-17.9989-2.709-1.5793-5.2465-2.2341-6.9821-2.5265A20.6639 20.6639 0 0 0 17.7776.528a20.458 20.458 0 0 0-1.7793-.0114c-.0122.0004-.0243.0009.751 19.9859.7752 19.9849.7631 19.9854.751 19.9859l-.0244.0009-.049.0017a21.065 21.065 0 0 1-.3011.0079 19.663 19.663 0 0 1-1.3469-.0209 19.3101 19.3101 0 0 1-8.7653-2.6055c-2.6961-1.5718-5.365-4.0124-7.2383-7.4338-1.8351-3.3519-2.3518-6.6277-2.3518-9.1239h40ZM16.7493.5026h-.3073v40h.3073v-40Zm-.3073 0c-4.0375 0-8.3201 1.1918-12.0613 3.9057-3.5223 2.5551-5.491 5.6739-6.5524 7.9455-1.8986 4.0635-1.9587 7.6901-1.9723 8.6367l39.9958.5771c-.0109.7581-.0449 3.9965-1.7842 7.7188-.9817 2.1011-2.8374 5.0611-6.1996 7.5001a19.477 19.477 0 0 1-11.426 3.7161v-40ZM-4.1461 21.279V39.816h40V21.279h-40Zm0 18.537c0 7.0631 2.9198 13.7052 8.5222 18.5136l26.0514-30.3534c1.2945 1.1111 2.8548 2.871 3.9934 5.3727 1.1361 2.4964 1.433 4.81 1.433 6.4671h-40Zm8.523 18.5142c3.7368 3.2069 7.6857 4.5776 10.4798 5.1692a23.615 23.615 0 0 0 3.691.4825c.5124.0259.9805.0325 1.3967.0278a21.3355 21.3355 0 0 0 .9908-.034l.0627-.0037.031-.002.0154-.0009c.0076-.0005.0153-.001-1.2677-19.9598-1.283-19.9588-1.2754-19.9593-1.2677-19.9598a1.1048 1.1048 0 0 1 .0153-.001l.0306-.0019.0614-.0036a19.7079 19.7079 0 0 1 .3713-.018 18.501 18.501 0 0 1 .5069-.0128c.3419-.0038.7013.0019 1.0765.0209a16.3861 16.3861 0 0 1 2.5711.3338 16.4134 16.4134 0 0 1 7.2847 3.6087L4.3768 58.3302Zm15.3997-14.3209c0 20 .0001 20 .0002 20h.8491l2.2463-.0001 6.8747-.0002c5.0072-.0003 10.2022-.0009 10.668-.0022l-.1129-39.9999h-.0023l-.0063.0001h-.0215l-.0707.0001-.2292.0002-.7518.0004-2.4432.0006c-1.9686.0003-4.5136.0005-7.0325.0007l-6.8731.0002-2.2458.0001H19.7768c-.0001 0-.0002 0-.0002 20Zm20.6383 19.9975c7.1039-.0201 13.8006-3.3355 18.3482-8.9023L27.7855 29.7986c2.687-3.2893 7.129-5.7765 12.5165-5.7917l.1129 39.9999Zm18.3542-8.9097c3.2454-3.9767 4.4342-8.0956 4.913-10.5289a24.742 24.742 0 0 0 .4252-3.3541 23.583 23.583 0 0 0 .0387-1.2258 21.8012 21.8012 0 0 0-.0134-.8957l-.001-.0258a.6418.6418 0 0 0-.0005-.0127c-.0002-.0064-.0004-.0127-19.9854.7615-19.9851.7742-19.9853.7678-19.9855.7615a.6418.6418 0 0 1-.0005-.0127l-.001-.0253-.0017-.0506a17.1285 17.1285 0 0 1-.0078-.3039 17.8778 17.8778 0 0 1-.0026-.4087c.0015-.2734.0095-.5588.0265-.8554a15.2512 15.2512 0 0 1 .2617-2.0757c.2755-1.4 1.0286-4.2009 3.3446-7.0388l30.9897 25.2911Z" mask="url(#b)"/></g><defs><clipPath id="a"><path fill="#fff" transform="translate(15.5 13)" d="M0 0h29v31H0z"/></clipPath></defs></svg>